<?xml version="1.0" encoding="UTF-8" standalone="no"?>
<!DOCTYPE svg PUBLIC "-//W3C//DTD SVG 1.1//EN"
 "http://www.w3.org/Graphics/SVG/1.1/DTD/svg11.dtd">
<!-- Generated by graphviz version 2.49.3 (20211023.0002)
 -->
<!-- Title: Nematoda Key Pages: 1 -->
<svg width="593pt" height="892pt"
 viewBox="0.00 0.00 593.40 892.18" xmlns="http://www.w3.org/2000/svg" xmlns:xlink="http://www.w3.org/1999/xlink">
<g id="graph0" class="graph" transform="scale(1 1) rotate(0) translate(4 888.18)">
<title>Nematoda Key</title>
<polygon fill="white" stroke="transparent" points="-4,4 -4,-888.18 589.4,-888.18 589.4,4 -4,4"/>
<!-- 001 -->
<g id="node1" class="node">
<title>001</title>
<ellipse fill="red" stroke="black" cx="52.33" cy="-498.18" rx="52.15" ry="26.74"/>
<text text-anchor="middle" x="52.33" y="-501.98" font-family="Times New Roman,serif" font-size="14.00">Phylum</text>
<text text-anchor="middle" x="52.33" y="-486.98" font-family="Times New Roman,serif" font-size="14.00">Nematoda</text>
</g>
<!-- Amphids -->
<g id="node4" class="node">
<title>Amphids</title>
<ellipse fill="none" stroke="black" cx="192.35" cy="-694.18" rx="44.39" ry="18"/>
<text text-anchor="middle" x="192.35" y="-690.48" font-family="Times New Roman,serif" font-size="14.00">Amphids</text>
</g>
<!-- 001&#45;&gt;Amphids -->
<g id="edge1" class="edge">
<title>001&#45;&gt;Amphids</title>
<path fill="none" stroke="black" d="M69.74,-523.85C87.09,-550.71 115.52,-593.95 141.65,-630.18 151.06,-643.21 161.97,-657.36 171.16,-669.03"/>
<polygon fill="black" stroke="black" points="168.56,-671.38 177.51,-677.04 174.04,-667.03 168.56,-671.38"/>
</g>
<!-- Cuticle -->
<g id="node5" class="node">
<title>Cuticle</title>
<ellipse fill="none" stroke="black" cx="192.35" cy="-477.18" rx="36.29" ry="18"/>
<text text-anchor="middle" x="192.35" y="-473.48" font-family="Times New Roman,serif" font-size="14.00">Cuticle</text>
</g>
<!-- 001&#45;&gt;Cuticle -->
<g id="edge2" class="edge">
<title>001&#45;&gt;Cuticle</title>
<path fill="none" stroke="black" d="M102.76,-490.65C117.33,-488.44 133.16,-486.03 147.36,-483.87"/>
<polygon fill="black" stroke="black" points="148.01,-487.31 157.37,-482.35 146.96,-480.39 148.01,-487.31"/>
</g>
<!-- Phasmids -->
<g id="node6" class="node">
<title>Phasmids</title>
<ellipse fill="none" stroke="black" cx="192.35" cy="-603.18" rx="46.29" ry="18"/>
<text text-anchor="middle" x="192.35" y="-599.48" font-family="Times New Roman,serif" font-size="14.00">Phasmids</text>
</g>
<!-- 001&#45;&gt;Phasmids -->
<g id="edge3" class="edge">
<title>001&#45;&gt;Phasmids</title>
<path fill="none" stroke="black" d="M77.21,-521.95C94.32,-538.28 118.35,-559.87 141.65,-576.18 145.62,-578.95 149.9,-581.66 154.22,-584.22"/>
<polygon fill="black" stroke="black" points="152.66,-587.36 163.08,-589.25 156.12,-581.27 152.66,-587.36"/>
</g>
<!-- Esophagus -->
<g id="node7" class="node">
<title>Esophagus</title>
<ellipse fill="none" stroke="black" cx="192.35" cy="-297.18" rx="50.89" ry="18"/>
<text text-anchor="middle" x="192.35" y="-293.48" font-family="Times New Roman,serif" font-size="14.00">Esophagus</text>
</g>
<!-- 001&#45;&gt;Esophagus -->
<g id="edge4" class="edge">
<title>001&#45;&gt;Esophagus</title>
<path fill="none" stroke="black" d="M61.22,-471.6C73.33,-434.64 99.61,-367.41 141.65,-324.18 144.31,-321.45 147.3,-318.92 150.46,-316.61"/>
<polygon fill="black" stroke="black" points="152.66,-319.35 159.13,-310.96 148.84,-313.49 152.66,-319.35"/>
</g>
<!-- Excretory
System -->
<g id="node8" class="node">
<title>Excretory
System</title>
<ellipse fill="none" stroke="black" cx="192.35" cy="-540.18" rx="50.41" ry="26.74"/>
<text text-anchor="middle" x="192.35" y="-543.98" font-family="Times New Roman,serif" font-size="14.00">Excretory</text>
<text text-anchor="middle" x="192.35" y="-528.98" font-family="Times New Roman,serif" font-size="14.00">System</text>
</g>
<!-- 001&#45;&gt;Excretory
System -->
<g id="edge5" class="edge">
<title>001&#45;&gt;Excretory
System</title>
<path fill="none" stroke="black" d="M97.76,-511.7C110.82,-515.67 125.23,-520.06 138.76,-524.17"/>
<polygon fill="black" stroke="black" points="137.83,-527.55 148.41,-527.11 139.86,-520.85 137.83,-527.55"/>
</g>
<!-- Females -->
<g id="node9" class="node">
<title>Females</title>
<ellipse fill="none" stroke="black" cx="192.35" cy="-351.18" rx="40.09" ry="18"/>
<text text-anchor="middle" x="192.35" y="-347.48" font-family="Times New Roman,serif" font-size="14.00">Females</text>
</g>
<!-- 001&#45;&gt;Females -->
<g id="edge6" class="edge">
<title>001&#45;&gt;Females</title>
<path fill="none" stroke="black" d="M67.82,-472.17C83.42,-445.95 110.26,-405.54 141.65,-378.18 145.53,-374.8 149.9,-371.67 154.41,-368.83"/>
<polygon fill="black" stroke="black" points="156.25,-371.8 163.13,-363.74 152.73,-365.76 156.25,-371.8"/>
</g>
<!-- Caudal
Alae -->
<g id="node10" class="node">
<title>Caudal
Alae</title>
<ellipse fill="none" stroke="black" cx="192.35" cy="-414.18" rx="39.7" ry="26.74"/>
<text text-anchor="middle" x="192.35" y="-417.98" font-family="Times New Roman,serif" font-size="14.00">Caudal</text>
<text text-anchor="middle" x="192.35" y="-402.98" font-family="Times New Roman,serif" font-size="14.00">Alae</text>
</g>
<!-- 001&#45;&gt;Caudal
Alae -->
<g id="edge7" class="edge">
<title>001&#45;&gt;Caudal
Alae</title>
<path fill="none" stroke="black" d="M86.74,-477.84C106.84,-465.61 132.5,-449.99 153.37,-437.29"/>
<polygon fill="black" stroke="black" points="155.27,-440.23 161.99,-432.04 151.63,-434.25 155.27,-440.23"/>
</g>
<!-- Males -->
<g id="node11" class="node">
<title>Males</title>
<ellipse fill="none" stroke="black" cx="192.35" cy="-811.18" rx="32.49" ry="18"/>
<text text-anchor="middle" x="192.35" y="-807.48" font-family="Times New Roman,serif" font-size="14.00">Males</text>
</g>
<!-- 001&#45;&gt;Males -->
<g id="edge8" class="edge">
<title>001&#45;&gt;Males</title>
<path fill="none" stroke="black" d="M62.6,-524.73C77.63,-567 108.96,-651.88 141.65,-721.18 152.16,-743.45 165.77,-767.85 176.09,-785.62"/>
<polygon fill="black" stroke="black" points="173.08,-787.4 181.16,-794.26 179.12,-783.86 173.08,-787.4"/>
</g>
<!-- Class
Chromadorea -->
<g id="node2" class="node">
<title>Class
Chromadorea</title>
<path fill="#66cdaa" stroke="blue" d="M581.57,-183.15C581.57,-183.15 581.57,-191.2 581.57,-191.2 581.57,-195.23 577.84,-200.78 574.12,-202.3 574.12,-202.3 547.23,-213.29 547.23,-213.29 543.5,-214.81 535.75,-216.33 531.72,-216.33 531.72,-216.33 488.72,-216.33 488.72,-216.33 484.69,-216.33 476.94,-214.81 473.21,-213.29 473.21,-213.29 446.33,-202.3 446.33,-202.3 442.6,-200.78 438.87,-195.23 438.87,-191.2 438.87,-191.2 438.87,-183.15 438.87,-183.15 438.87,-179.13 442.6,-173.58 446.33,-172.05 446.33,-172.05 473.21,-161.06 473.21,-161.06 476.94,-159.54 484.69,-158.02 488.72,-158.02 488.72,-158.02 531.72,-158.02 531.72,-158.02 535.75,-158.02 543.5,-159.54 547.23,-161.06 547.23,-161.06 574.12,-172.05 574.12,-172.05 577.84,-173.58 581.57,-179.13 581.57,-183.15"/>
<path fill="none" stroke="blue" d="M585.58,-182.25C585.58,-182.25 585.58,-192.1 585.58,-192.1 585.58,-197.02 581.02,-203.81 576.47,-205.67 576.47,-205.67 549.68,-216.62 549.68,-216.62 545.12,-218.48 535.64,-220.34 530.72,-220.34 530.72,-220.34 489.73,-220.34 489.73,-220.34 484.8,-220.34 475.32,-218.48 470.77,-216.62 470.77,-216.62 443.98,-205.67 443.98,-205.67 439.42,-203.81 434.86,-197.02 434.86,-192.1 434.86,-192.1 434.86,-182.25 434.86,-182.25 434.86,-177.33 439.42,-170.54 443.98,-168.68 443.98,-168.68 470.77,-157.73 470.77,-157.73 475.32,-155.87 484.8,-154.01 489.73,-154.01 489.73,-154.01 530.72,-154.01 530.72,-154.01 535.64,-154.01 545.12,-155.87 549.68,-157.73 549.68,-157.73 576.47,-168.68 576.47,-168.68 581.02,-170.54 585.58,-177.33 585.58,-182.25"/>
<text text-anchor="middle" x="510.22" y="-190.98" font-family="Times New Roman,serif" font-size="14.00">Class</text>
<text text-anchor="middle" x="510.22" y="-175.98" font-family="Times New Roman,serif" font-size="14.00">Chromadorea</text>
</g>
<!-- Class
Enoplea -->
<g id="node3" class="node">
<title>Class
Enoplea</title>
<path fill="#66cdaa" stroke="blue" d="M557.63,-523.15C557.63,-523.15 557.63,-531.2 557.63,-531.2 557.63,-535.23 554.2,-541.36 550.77,-543.47 550.77,-543.47 536.72,-552.12 536.72,-552.12 533.29,-554.23 525.83,-556.33 521.81,-556.33 521.81,-556.33 498.64,-556.33 498.64,-556.33 494.61,-556.33 487.16,-554.23 483.73,-552.12 483.73,-552.12 469.67,-543.47 469.67,-543.47 466.24,-541.36 462.81,-535.23 462.81,-531.2 462.81,-531.2 462.81,-523.15 462.81,-523.15 462.81,-519.13 466.24,-512.99 469.67,-510.88 469.67,-510.88 483.73,-502.24 483.73,-502.24 487.16,-500.13 494.61,-498.02 498.64,-498.02 498.64,-498.02 521.81,-498.02 521.81,-498.02 525.83,-498.02 533.29,-500.13 536.72,-502.24 536.72,-502.24 550.77,-510.88 550.77,-510.88 554.2,-512.99 557.63,-519.13 557.63,-523.15"/>
<path fill="none" stroke="blue" d="M561.63,-522.4C561.63,-522.4 561.63,-531.95 561.63,-531.95 561.63,-536.73 557.56,-544 553.49,-546.5 553.49,-546.5 539.12,-555.34 539.12,-555.34 535.05,-557.84 526.21,-560.34 521.44,-560.34 521.44,-560.34 499.01,-560.34 499.01,-560.34 494.23,-560.34 485.39,-557.84 481.32,-555.34 481.32,-555.34 466.95,-546.5 466.95,-546.5 462.88,-544 458.82,-536.73 458.82,-531.95 458.82,-531.95 458.82,-522.4 458.82,-522.4 458.82,-517.63 462.88,-510.35 466.95,-507.85 466.95,-507.85 481.32,-499.01 481.32,-499.01 485.39,-496.51 494.23,-494.01 499.01,-494.01 499.01,-494.01 521.44,-494.01 521.44,-494.01 526.21,-494.01 535.05,-496.51 539.12,-499.01 539.12,-499.01 553.49,-507.85 553.49,-507.85 557.56,-510.35 561.63,-517.63 561.63,-522.4"/>
<text text-anchor="middle" x="510.22" y="-530.98" font-family="Times New Roman,serif" font-size="14.00">Class</text>
<text text-anchor="middle" x="510.22" y="-515.98" font-family="Times New Roman,serif" font-size="14.00">Enoplea</text>
</g>
<!-- Amphids&#45;&gt;Class
Chromadorea -->
<g id="edge9" class="edge">
<title>Amphids&#45;&gt;Class
Chromadorea</title>
<path fill="none" stroke="black" d="M235.53,-690.15C296.87,-683.89 404.75,-671.18 417.04,-658.18 443.6,-630.09 428.36,-523.25 435.04,-485.18 451.18,-393.29 479.92,-287.78 496.49,-230.21"/>
<polygon fill="black" stroke="black" points="499.92,-230.95 499.33,-220.37 493.19,-229 499.92,-230.95"/>
<text text-anchor="middle" x="339.04" y="-765.98" font-family="Times New Roman,serif" font-size="14.00">Labial</text>
<text text-anchor="middle" x="339.04" y="-750.98" font-family="Times New Roman,serif" font-size="14.00">post&#45;labial</text>
<text text-anchor="middle" x="339.04" y="-735.98" font-family="Times New Roman,serif" font-size="14.00">pore&#45;like</text>
<text text-anchor="middle" x="339.04" y="-720.98" font-family="Times New Roman,serif" font-size="14.00">slit&#45;like</text>
<text text-anchor="middle" x="339.04" y="-705.98" font-family="Times New Roman,serif" font-size="14.00">elaborate coils</text>
<text text-anchor="middle" x="339.04" y="-690.98" font-family="Times New Roman,serif" font-size="14.00">spirals</text>
</g>
<!-- Amphids&#45;&gt;Class
Enoplea -->
<g id="edge16" class="edge">
<title>Amphids&#45;&gt;Class
Enoplea</title>
<path fill="none" stroke="black" d="M200.65,-712.23C210.62,-734.12 230.78,-769.97 261.04,-785.18 292.02,-800.74 388.7,-805.14 417.04,-785.18 486.37,-736.33 503.84,-630.38 508.06,-570.56"/>
<polygon fill="black" stroke="black" points="511.57,-570.5 508.69,-560.3 504.58,-570.07 511.57,-570.5"/>
<text text-anchor="middle" x="339.04" y="-831.98" font-family="Times New Roman,serif" font-size="14.00">Pocket like</text>
<text text-anchor="middle" x="339.04" y="-816.98" font-family="Times New Roman,serif" font-size="14.00">not spiral</text>
<text text-anchor="middle" x="339.04" y="-801.98" font-family="Times New Roman,serif" font-size="14.00">post&#45;labial</text>
</g>
<!-- Cuticle&#45;&gt;Class
Chromadorea -->
<g id="edge10" class="edge">
<title>Cuticle&#45;&gt;Class
Chromadorea</title>
<path fill="none" stroke="black" d="M222.91,-467.22C230.71,-463.16 238.27,-457.61 243.04,-450.18 274.58,-401.07 218.47,-228.09 261.04,-188.18 284.08,-166.58 362.11,-169.39 424.6,-175.73"/>
<polygon fill="black" stroke="black" points="424.57,-179.25 434.88,-176.82 425.3,-172.29 424.57,-179.25"/>
<text text-anchor="middle" x="339.04" y="-221.98" font-family="Times New Roman,serif" font-size="14.00">annulated</text>
<text text-anchor="middle" x="339.04" y="-206.98" font-family="Times New Roman,serif" font-size="14.00">ornamented with</text>
<text text-anchor="middle" x="339.04" y="-191.98" font-family="Times New Roman,serif" font-size="14.00">projections and setae.</text>
</g>
<!-- Cuticle&#45;&gt;Class
Enoplea -->
<g id="edge17" class="edge">
<title>Cuticle&#45;&gt;Class
Enoplea</title>
<path fill="none" stroke="black" d="M225.62,-469.54C269.82,-460.49 351.2,-448.91 417.04,-468.18 435.66,-473.62 454.09,-484.11 469.52,-494.75"/>
<polygon fill="black" stroke="black" points="467.59,-497.68 477.76,-500.65 471.67,-491.98 467.59,-497.68"/>
<text text-anchor="middle" x="339.04" y="-486.98" font-family="Times New Roman,serif" font-size="14.00">Smooth or</text>
<text text-anchor="middle" x="339.04" y="-471.98" font-family="Times New Roman,serif" font-size="14.00">finely striated</text>
</g>
<!-- Phasmids&#45;&gt;Class
Chromadorea -->
<g id="edge11" class="edge">
<title>Phasmids&#45;&gt;Class
Chromadorea</title>
<path fill="none" stroke="black" d="M225.5,-590.48C232.03,-586.69 238.32,-581.96 243.04,-576.18 260.38,-554.94 240.04,-534.8 261.04,-517.18 314.56,-472.29 363.71,-543.28 417.04,-498.18 458.15,-463.42 489.26,-307.15 502.39,-230.23"/>
<polygon fill="black" stroke="black" points="505.84,-230.81 504.05,-220.36 498.94,-229.64 505.84,-230.81"/>
<text text-anchor="middle" x="339.04" y="-550.98" font-family="Times New Roman,serif" font-size="14.00">Distinct</text>
<text text-anchor="middle" x="339.04" y="-535.98" font-family="Times New Roman,serif" font-size="14.00">or indistinct</text>
<text text-anchor="middle" x="339.04" y="-520.98" font-family="Times New Roman,serif" font-size="14.00">posterior</text>
</g>
<!-- Phasmids&#45;&gt;Class
Enoplea -->
<g id="edge18" class="edge">
<title>Phasmids&#45;&gt;Class
Enoplea</title>
<path fill="none" stroke="black" d="M231.24,-613.03C276.97,-622.99 355.38,-633.85 417.04,-610.18 440.58,-601.14 461.87,-583.01 478.04,-566"/>
<polygon fill="black" stroke="black" points="480.92,-568.03 485.1,-558.29 475.76,-563.3 480.92,-568.03"/>
<text text-anchor="middle" x="339.04" y="-642.98" font-family="Times New Roman,serif" font-size="14.00">Present or</text>
<text text-anchor="middle" x="339.04" y="-627.98" font-family="Times New Roman,serif" font-size="14.00">absent</text>
</g>
<!-- Esophagus&#45;&gt;Class
Chromadorea -->
<g id="edge12" class="edge">
<title>Esophagus&#45;&gt;Class
Chromadorea</title>
<path fill="none" stroke="black" d="M195.1,-278.92C200.82,-223.71 220.91,-60.43 261.04,-29.18 315.74,13.43 356.92,5.35 417.04,-29.18 459.64,-53.64 484.41,-106.22 497.35,-144.01"/>
<polygon fill="black" stroke="black" points="494.1,-145.34 500.54,-153.76 500.76,-143.17 494.1,-145.34"/>
<text text-anchor="middle" x="339.04" y="-47.98" font-family="Times New Roman,serif" font-size="14.00">Divided into bulbs</text>
<text text-anchor="middle" x="339.04" y="-32.98" font-family="Times New Roman,serif" font-size="14.00">3 to 5 esophageal glands</text>
</g>
<!-- Esophagus&#45;&gt;Class
Enoplea -->
<g id="edge19" class="edge">
<title>Esophagus&#45;&gt;Class
Enoplea</title>
<path fill="none" stroke="black" d="M241.67,-292.99C298.84,-289.04 389.7,-286.21 417.04,-305.18 475.87,-345.99 497.25,-431.8 504.95,-483.97"/>
<polygon fill="black" stroke="black" points="501.49,-484.5 506.32,-493.94 508.43,-483.55 501.49,-484.5"/>
<text text-anchor="middle" x="339.04" y="-353.98" font-family="Times New Roman,serif" font-size="14.00">Cylindrical or bottle&#45;shaped</text>
<text text-anchor="middle" x="339.04" y="-338.98" font-family="Times New Roman,serif" font-size="14.00">3 to 5 esophageal glands</text>
<text text-anchor="middle" x="339.04" y="-323.98" font-family="Times New Roman,serif" font-size="14.00">stichosome</text>
<text text-anchor="middle" x="339.04" y="-308.98" font-family="Times New Roman,serif" font-size="14.00">or trophosome</text>
</g>
<!-- Excretory
System&#45;&gt;Class
Chromadorea -->
<g id="edge13" class="edge">
<title>Excretory
System&#45;&gt;Class
Chromadorea</title>
<path fill="none" stroke="black" d="M228.18,-521.1C234.05,-516.34 239.41,-510.69 243.04,-504.18 269.93,-455.9 223.44,-296.67 261.04,-256.18 284.89,-230.5 383.61,-243.69 417.04,-233.18 429.29,-229.32 441.92,-224.01 453.76,-218.37"/>
<polygon fill="black" stroke="black" points="455.63,-221.35 463.05,-213.79 452.54,-215.07 455.63,-221.35"/>
<text text-anchor="middle" x="339.04" y="-274.98" font-family="Times New Roman,serif" font-size="14.00">Glandular</text>
<text text-anchor="middle" x="339.04" y="-259.98" font-family="Times New Roman,serif" font-size="14.00">or tubular.</text>
</g>
<!-- Excretory
System&#45;&gt;Class
Enoplea -->
<g id="edge20" class="edge">
<title>Excretory
System&#45;&gt;Class
Enoplea</title>
<path fill="none" stroke="black" d="M230.94,-557.41C240.56,-561.03 251.02,-564.32 261.04,-566.18 329.21,-578.82 349.09,-579.96 417.04,-566.18 431.57,-563.23 446.65,-557.92 460.31,-552.14"/>
<polygon fill="black" stroke="black" points="461.76,-555.32 469.51,-548.09 458.94,-548.92 461.76,-555.32"/>
<text text-anchor="middle" x="339.04" y="-594.98" font-family="Times New Roman,serif" font-size="14.00">Simple non&#45;tubular</text>
<text text-anchor="middle" x="339.04" y="-579.98" font-family="Times New Roman,serif" font-size="14.00">Single cell</text>
</g>
<!-- Females&#45;&gt;Class
Chromadorea -->
<g id="edge14" class="edge">
<title>Females&#45;&gt;Class
Chromadorea</title>
<path fill="none" stroke="black" d="M224.7,-340.23C231.84,-336.27 238.62,-331.02 243.04,-324.18 272.31,-278.88 221.52,-118.87 261.04,-82.18 286.45,-58.59 385.46,-67.88 417.04,-82.18 445.87,-95.23 469.26,-122.25 485.27,-145.62"/>
<polygon fill="black" stroke="black" points="482.39,-147.61 490.82,-154.02 488.23,-143.75 482.39,-147.61"/>
<text text-anchor="middle" x="339.04" y="-100.98" font-family="Times New Roman,serif" font-size="14.00">One or</text>
<text text-anchor="middle" x="339.04" y="-85.98" font-family="Times New Roman,serif" font-size="14.00"> two ovaries.</text>
</g>
<!-- Females&#45;&gt;Class
Enoplea -->
<g id="edge21" class="edge">
<title>Females&#45;&gt;Class
Enoplea</title>
<path fill="none" stroke="black" d="M226.57,-360.81C237.49,-363.77 249.73,-366.85 261.04,-369.18 329.68,-383.32 357.63,-355.01 417.04,-392.18 451.71,-413.87 476.56,-453.91 491.65,-484.77"/>
<polygon fill="black" stroke="black" points="488.59,-486.48 496.03,-494.03 494.92,-483.49 488.59,-486.48"/>
<text text-anchor="middle" x="339.04" y="-395.98" font-family="Times New Roman,serif" font-size="14.00">Two ovaries</text>
</g>
<!-- Caudal
Alae&#45;&gt;Class
Chromadorea -->
<g id="edge15" class="edge">
<title>Caudal
Alae&#45;&gt;Class
Chromadorea</title>
<path fill="none" stroke="black" d="M224.34,-398.03C231.67,-392.71 238.63,-386.08 243.04,-378.18 269.42,-330.89 221.37,-172.02 261.04,-135.18 286.45,-111.59 383.51,-126.37 417.04,-135.18 431.63,-139.01 446.33,-145.72 459.58,-153.09"/>
<polygon fill="black" stroke="black" points="458.1,-156.27 468.51,-158.26 461.61,-150.21 458.1,-156.27"/>
<text text-anchor="middle" x="339.04" y="-153.98" font-family="Times New Roman,serif" font-size="14.00">Present or</text>
<text text-anchor="middle" x="339.04" y="-138.98" font-family="Times New Roman,serif" font-size="14.00">absent</text>
</g>
<!-- Caudal
Alae&#45;&gt;Class
Enoplea -->
<g id="edge23" class="edge">
<title>Caudal
Alae&#45;&gt;Class
Enoplea</title>
<path fill="none" stroke="black" d="M231.74,-411.23C277.95,-409.27 356.85,-411.08 417.04,-439.18 441.08,-450.4 462.81,-470.4 479.14,-488.51"/>
<polygon fill="black" stroke="black" points="476.57,-490.9 485.79,-496.12 481.84,-486.29 476.57,-490.9"/>
<text text-anchor="middle" x="339.04" y="-442.98" font-family="Times New Roman,serif" font-size="14.00">Rare</text>
</g>
<!-- Males&#45;&gt;Class
Enoplea -->
<g id="edge22" class="edge">
<title>Males&#45;&gt;Class
Enoplea</title>
<path fill="none" stroke="black" d="M213.32,-825.16C226.26,-833.34 243.86,-842.89 261.04,-847.18 328.32,-863.95 361.65,-888.87 417.04,-847.18 461.47,-813.74 491.18,-649.87 503.2,-570.47"/>
<polygon fill="black" stroke="black" points="506.7,-570.71 504.71,-560.3 499.78,-569.68 506.7,-570.71"/>
<text text-anchor="middle" x="339.04" y="-872.98" font-family="Times New Roman,serif" font-size="14.00">Two testes.</text>
</g>
</g>
</svg>
